<mxfile host="app.diagrams.net" modified="2023-05-13T08:48:09.505Z" agent="Mozilla/5.0 (Windows NT 10.0; Win64; x64) AppleWebKit/537.36 (KHTML, like Gecko) Chrome/113.0.0.0 Safari/537.36" version="21.2.4" etag="kbnDNX8MxYZY1AYcSsCL" type="github">
  <diagram name="第 1 页" id="jUqdWQ8KWtZtvU9WpjYB">
    <mxGraphModel>
      <root>
        <mxCell id="0" />
        <mxCell id="1" parent="0" />
      </root>
    </mxGraphModel>
  </diagram>
</mxfile>
